<?xml version="1.0" encoding="utf-8"?>
<!-- Generator: Adobe Illustrator 18.1.1, SVG Export Plug-In . SVG Version: 6.00 Build 0)  -->
<svg version="1.1" id="Layer_5" xmlns="http://www.w3.org/2000/svg" xmlns:xlink="http://www.w3.org/1999/xlink" x="0px" y="0px"
	 viewBox="0 0 220 214" enable-background="new 0 0 220 214" xml:space="preserve">
<polygon fill="#F1C6BA" points="22.4,25 22.4,25.3 23.3,25.3 "/>
<path fill="#F1C6BA" d="M26.7,188.8l9-3C32,153.3,22.8,30.3,22.4,25.5L26.7,188.8z"/>
<polygon fill="#F4D8CF" points="202.4,73.8 163.1,63.1 98.6,164.7 179.4,137.6 "/>
<path fill="#EFBAAA" d="M37,193.5c1.9-0.6,37.3,9.5,37.3,9.5l24.3-38.4l-62.9,21.1C36.3,190.7,36.7,193.6,37,193.5z"/>
<path fill="#E27555" d="M22.4,25.3c0,0,0,0.1,0,0.2L22.4,25.3L22.4,25.3z"/>
<polyline fill="#EFBAAA" points="191.9,17.7 23.3,25.3 163.1,63.1 191.9,17.7 "/>
<path fill="#E27555" d="M23.3,25.3l-0.9,0l0,0.2c0.4,4.8,9.6,127.8,13.3,160.3l62.9-21.1l64.5-101.5L23.3,25.3z"/>
</svg>
